<?xml version="1.0" encoding="UTF-8"?>
<!DOCTYPE svg PUBLIC "-//W3C//DTD SVG 1.1//EN" "http://www.w3.org/Graphics/SVG/1.1/DTD/svg11.dtd">
<svg xmlns="http://www.w3.org/2000/svg" version="1.1" width="400px" height="300px" style="shape-rendering:geometricPrecision; text-rendering:geometricPrecision; image-rendering:optimizeQuality; fill-rule:evenodd; clip-rule:evenodd" xmlns:xlink="http://www.w3.org/1999/xlink">
<g><path style="opacity:1" fill="#51fcaf" d="M 239.5,71.5 C 247.016,75.4224 254.016,80.0891 260.5,85.5C 253.167,85.5 245.833,85.5 238.5,85.5C 238.5,84.1667 238.5,82.8333 238.5,81.5C 238.187,77.9581 238.521,74.6248 239.5,71.5 Z"/></g>
<g><path style="opacity:1" fill="#50faac" d="M 156.5,73.5 C 157.412,78.3893 158.412,83.3893 159.5,88.5C 158.5,88.8333 157.5,89.1667 156.5,89.5C 149.982,88.3978 143.649,87.0644 137.5,85.5C 142.981,80.2536 149.314,76.2536 156.5,73.5 Z"/></g>
<g><path style="opacity:1" fill="#319569" d="M 238.5,81.5 C 238.5,82.8333 238.5,84.1667 238.5,85.5C 245.833,85.5 253.167,85.5 260.5,85.5C 260.833,85.5 261.167,85.5 261.5,85.5C 253.684,86.4924 245.684,86.8257 237.5,86.5C 237.216,84.5853 237.549,82.9187 238.5,81.5 Z"/></g>
<g><path style="opacity:1" fill="#50fdad" d="M 123.5,97.5 C 128.302,103.684 132.468,110.351 136,117.5C 139.743,120.621 143.576,123.621 147.5,126.5C 145.631,127.624 143.631,128.457 141.5,129C 132.404,130.385 123.404,131.718 114.5,133C 119.702,135.528 124.369,138.861 128.5,143C 134.209,149.04 139.543,155.374 144.5,162C 137.293,166.103 129.959,169.937 122.5,173.5C 122.977,174.478 123.643,175.311 124.5,176C 131.414,179.707 138.248,183.54 145,187.5C 144.884,192.586 144.051,197.586 142.5,202.5C 147.167,202.5 151.833,202.5 156.5,202.5C 156.05,207.202 155.383,211.868 154.5,216.5C 157.835,215.661 161.168,215.161 164.5,215C 169.767,221.439 176.434,225.606 184.5,227.5C 184.5,231.167 184.5,234.833 184.5,238.5C 176.427,240.691 168.427,243.191 160.5,246C 158.627,247.704 156.96,249.537 155.5,251.5C 112.291,227.411 94.4574,190.744 102,141.5C 105.728,125.046 112.895,110.379 123.5,97.5 Z"/></g>
<g><path style="opacity:1" fill="#50fdad" d="M 272.5,96.5 C 294.496,121.468 302.329,150.468 296,183.5C 288.021,215.495 269.187,238.495 239.5,252.5C 237.706,250.203 235.706,248.037 233.5,246C 225.735,243.8 218.068,241.3 210.5,238.5C 209.167,235.167 209.167,231.833 210.5,228.5C 218.375,225.792 225.042,221.292 230.5,215C 233.794,215.365 237.127,215.865 240.5,216.5C 240.46,211.807 240.127,207.141 239.5,202.5C 245.479,203.298 251.479,203.965 257.5,204.5C 254.291,199.088 251.291,193.421 248.5,187.5C 255.965,183.198 263.299,178.698 270.5,174C 264.833,168.333 259.167,162.667 253.5,157C 260.962,147.201 269.962,139.201 280.5,133C 271.833,131.667 263.167,130.333 254.5,129C 251.992,128.885 249.992,127.885 248.5,126C 256.35,115.989 264.35,106.156 272.5,96.5 Z"/></g>
<g><path style="opacity:1" fill="#141817" d="M 239.5,71.5 C 238.521,74.6248 238.187,77.9581 238.5,81.5C 237.549,82.9187 237.216,84.5853 237.5,86.5C 245.684,86.8257 253.684,86.4924 261.5,85.5C 267.537,85.1707 273.537,85.5041 279.5,86.5C 277.116,89.8694 274.783,93.2027 272.5,96.5C 264.35,106.156 256.35,115.989 248.5,126C 249.992,127.885 251.992,128.885 254.5,129C 263.167,130.333 271.833,131.667 280.5,133C 269.962,139.201 260.962,147.201 253.5,157C 259.167,162.667 264.833,168.333 270.5,174C 263.299,178.698 255.965,183.198 248.5,187.5C 251.291,193.421 254.291,199.088 257.5,204.5C 251.479,203.965 245.479,203.298 239.5,202.5C 240.127,207.141 240.46,211.807 240.5,216.5C 237.127,215.865 233.794,215.365 230.5,215C 225.042,221.292 218.375,225.792 210.5,228.5C 209.167,231.833 209.167,235.167 210.5,238.5C 218.068,241.3 225.735,243.8 233.5,246C 235.706,248.037 237.706,250.203 239.5,252.5C 239.158,253.338 238.492,253.672 237.5,253.5C 235.998,251.825 234.665,249.992 233.5,248C 226.118,245.595 218.785,243.095 211.5,240.5C 210.503,247.134 210.17,253.8 210.5,260.5C 208.861,254.889 207.861,248.889 207.5,242.5C 200.512,245.021 193.512,245.021 186.5,242.5C 186.44,241.957 186.107,241.624 185.5,241.5C 184.504,247.798 184.17,254.132 184.5,260.5C 184.167,260.5 183.833,260.5 183.5,260.5C 183.83,253.8 183.497,247.134 182.5,240.5C 175.204,243.099 167.871,245.599 160.5,248C 159.211,249.802 157.544,250.969 155.5,251.5C 156.96,249.537 158.627,247.704 160.5,246C 168.427,243.191 176.427,240.691 184.5,238.5C 184.5,234.833 184.5,231.167 184.5,227.5C 176.434,225.606 169.767,221.439 164.5,215C 161.168,215.161 157.835,215.661 154.5,216.5C 155.383,211.868 156.05,207.202 156.5,202.5C 151.833,202.5 147.167,202.5 142.5,202.5C 144.051,197.586 144.884,192.586 145,187.5C 138.248,183.54 131.414,179.707 124.5,176C 123.643,175.311 122.977,174.478 122.5,173.5C 129.959,169.937 137.293,166.103 144.5,162C 139.543,155.374 134.209,149.04 128.5,143C 124.369,138.861 119.702,135.528 114.5,133C 123.404,131.718 132.404,130.385 141.5,129C 143.631,128.457 145.631,127.624 147.5,126.5C 143.576,123.621 139.743,120.621 136,117.5C 132.468,110.351 128.302,103.684 123.5,97.5C 120.244,92.2375 116.578,87.2375 112.5,82.5C 113.5,82.1667 114.5,81.8333 115.5,81.5C 122.823,82.9648 130.156,84.2981 137.5,85.5C 143.649,87.0644 149.982,88.3978 156.5,89.5C 157.5,89.1667 158.5,88.8333 159.5,88.5C 158.412,83.3893 157.412,78.3893 156.5,73.5C 156.874,62.8788 156.208,52.3788 154.5,42C 155.025,41.3076 155.692,40.8076 156.5,40.5C 166.769,47.7686 176.436,55.7686 185.5,64.5C 187.846,67.679 190.679,70.3456 194,72.5C 198.269,70.3972 201.769,67.3972 204.5,63.5C 212.999,55.8358 221.666,48.3358 230.5,41C 232.976,38.4289 235.976,36.9289 239.5,36.5C 239.148,48.1213 239.148,59.788 239.5,71.5 Z"/></g>
<g><path style="opacity:1" fill="#e4d5c9" d="M 241.5,166.5 C 249.109,169.057 251.275,174.057 248,181.5C 246.429,183.923 244.263,185.256 241.5,185.5C 241.5,179.167 241.5,172.833 241.5,166.5 Z"/></g>
<g><path style="opacity:1" fill="#ebd9cd" d="M 152.5,167.5 C 153.49,173.31 153.823,179.31 153.5,185.5C 148.387,184.459 146.054,181.292 146.5,176C 146.359,171.643 148.359,168.809 152.5,167.5 Z"/></g>
<g><path style="opacity:1" fill="#928987" d="M 152.5,167.5 C 152.56,166.957 152.893,166.624 153.5,166.5C 154.817,172.988 154.817,179.322 153.5,185.5C 153.823,179.31 153.49,173.31 152.5,167.5 Z"/></g>
<g><path style="opacity:1" fill="#e8d7ca" d="M 189.5,90.5 C 207.718,88.5298 222.218,94.8631 233,109.5C 236.124,114.415 238.124,119.748 239,125.5C 239.667,147.5 239.667,169.5 239,191.5C 235.743,211.424 224.243,223.591 204.5,228C 179.104,229.561 163.271,218.061 157,193.5C 156.039,168.784 156.372,144.117 158,119.5C 163.941,104.72 174.441,95.0534 189.5,90.5 Z"/></g>
<g><path style="opacity:1" fill="#b3e8f9" d="M 235.5,39.5 C 236.844,46.7909 237.511,54.2909 237.5,62C 237.048,70.4979 236.714,78.9979 236.5,87.5C 249.504,87.3334 262.504,87.5001 275.5,88C 266.203,100.962 256.536,113.629 246.5,126C 247.154,127.987 248.487,129.32 250.5,130C 258.819,131.426 267.152,132.76 275.5,134C 266.064,139.935 258.064,147.435 251.5,156.5C 256.861,162.193 262.195,167.86 267.5,173.5C 261.629,178.097 255.295,181.597 248.5,184C 253.914,174.991 251.747,168.491 242,164.5C 241.667,151.5 241.333,138.5 241,125.5C 234.4,99.8987 217.9,87.7321 191.5,89C 172.219,92.947 160.052,104.447 155,123.5C 154.5,137.163 154.333,150.829 154.5,164.5C 145.675,166.804 142.508,172.471 145,181.5C 147.149,185.156 150.316,187.156 154.5,187.5C 154.379,191.825 155.046,195.991 156.5,200C 152.848,200.499 149.182,200.665 145.5,200.5C 146.208,195.814 146.708,191.147 147,186.5C 139.751,182.46 132.585,178.293 125.5,174C 132.824,170.673 139.824,166.84 146.5,162.5C 139.399,151.232 130.399,141.732 119.5,134C 128.945,132.978 138.279,131.311 147.5,129C 148.357,128.311 149.023,127.478 149.5,126.5C 145.174,122.343 140.674,118.343 136,114.5C 131.101,103.603 124.601,93.7693 116.5,85C 130.407,86.4159 144.24,88.5825 158,91.5C 159.167,91.1667 160.333,90.8333 161.5,90.5C 160.251,86.2584 159.417,81.9251 159,77.5C 158.333,66.5 158.333,55.5 159,44.5C 171.277,54.2741 183.111,64.6075 194.5,75.5C 208.051,63.2471 221.718,51.2471 235.5,39.5 Z"/></g>
<g><path style="opacity:1" fill="#978b89" d="M 167.5,161.5 C 172.036,163.674 176.703,164.007 181.5,162.5C 178.144,164.379 174.477,164.879 170.5,164C 169.058,163.623 168.058,162.79 167.5,161.5 Z"/></g>
<g><path style="opacity:1" fill="#1b1919" d="M 207.5,156.5 C 214.968,163.111 222.468,163.111 230,156.5C 230.163,158.387 229.329,159.887 227.5,161C 222.652,163.789 217.652,164.122 212.5,162C 209.921,160.924 208.254,159.091 207.5,156.5 Z"/></g>
<g><path style="opacity:1" fill="#171515" d="M 181.5,162.5 C 176.703,164.007 172.036,163.674 167.5,161.5C 166.544,160.341 165.544,159.174 164.5,158C 164.667,157.5 164.833,157 165,156.5C 172,163.167 179,163.167 186,156.5C 186.749,157.635 186.583,158.635 185.5,159.5C 184.099,160.521 182.765,161.521 181.5,162.5 Z"/></g>
<g><path style="opacity:1" fill="#0c0a09" d="M 190.5,156.5 C 192.295,162.084 193.129,168.084 193,174.5C 195.135,179.325 197.801,179.659 201,175.5C 202.161,170.584 202.827,165.584 203,160.5C 203.667,165.5 203.667,170.5 203,175.5C 199.829,180.414 196.163,180.747 192,176.5C 190.623,169.924 190.123,163.257 190.5,156.5 Z"/></g>
<g><path style="opacity:1" fill="#141313" d="M 161.5,115.5 C 185.836,115.333 210.169,115.5 234.5,116C 236.124,119.206 235.458,121.872 232.5,124C 238.591,131.76 239.091,139.926 234,148.5C 228.245,155.037 221.078,157.203 212.5,155C 202.042,149.918 198.208,141.751 201,130.5C 201.883,127.898 203.383,125.731 205.5,124C 200.167,123.333 194.833,123.333 189.5,124C 195.131,131.268 195.964,139.101 192,147.5C 186.257,155.058 178.757,157.558 169.5,155C 159.398,150.296 155.565,142.462 158,131.5C 159.233,128.703 160.733,126.037 162.5,123.5C 160.238,121.056 159.904,118.389 161.5,115.5 Z"/></g>
<g><path style="opacity:1" fill="#f9f9f9" d="M 201.5,135.5 C 206.695,135.179 211.695,135.513 216.5,136.5C 216.389,137.117 216.056,137.617 215.5,138C 217.345,139.128 219.345,139.628 221.5,139.5C 221.67,138.178 221.337,137.011 220.5,136C 225.489,135.501 230.489,135.334 235.5,135.5C 235.15,146.52 229.484,152.853 218.5,154.5C 207.554,152.888 201.888,146.554 201.5,135.5 Z"/></g>
<g><path style="opacity:1" fill="#f8f8f8" d="M 159.5,135.5 C 164.363,135.181 169.03,135.514 173.5,136.5C 173.389,137.117 173.056,137.617 172.5,138C 174.695,139.373 177.029,139.706 179.5,139C 178.833,138 178.167,137 177.5,136C 182.489,135.501 187.489,135.334 192.5,135.5C 192.913,146.923 187.413,153.256 176,154.5C 164.356,153.049 158.856,146.715 159.5,135.5 Z"/></g>
<g><path style="opacity:1" fill="#5c5c5f" d="M 201.5,135.5 C 207.319,134.347 213.319,134.181 219.5,135C 218.473,135.513 217.473,136.013 216.5,136.5C 211.695,135.513 206.695,135.179 201.5,135.5 Z"/></g>
<g><path style="opacity:1" fill="#5d5d5e" d="M 159.5,135.5 C 165.013,134.184 170.68,134.184 176.5,135.5C 175.606,135.517 174.606,135.851 173.5,136.5C 169.03,135.514 164.363,135.181 159.5,135.5 Z"/></g>
<g><path style="opacity:1" fill="#e6d6c8" d="M 207.5,123.5 C 214.841,123.334 222.174,123.5 229.5,124C 232.361,126.219 234.361,129.053 235.5,132.5C 224.52,133.499 213.52,133.832 202.5,133.5C 203.282,129.72 204.948,126.387 207.5,123.5 Z"/></g>
<g><path style="opacity:1" fill="#ead9cb" d="M 165.5,123.5 C 172.508,123.334 179.508,123.5 186.5,124C 189.361,126.219 191.361,129.053 192.5,132.5C 181.5,133.833 170.5,133.833 159.5,132.5C 160.766,128.955 162.766,125.955 165.5,123.5 Z"/></g>
<g><path style="opacity:1" fill="#b0e0ef" d="M 163.5,116.5 C 186.502,116.333 209.502,116.5 232.5,117C 233.833,118.333 233.833,119.667 232.5,121C 209.167,121.667 185.833,121.667 162.5,121C 161.419,119.289 161.752,117.789 163.5,116.5 Z"/></g>
<g><path style="opacity:1" fill="#51f5aa" d="M 204.5,63.5 C 201.769,67.3972 198.269,70.3972 194,72.5C 190.679,70.3456 187.846,67.679 185.5,64.5C 191.789,63.6279 198.122,63.2946 204.5,63.5 Z"/></g>
<g><path style="opacity:1" fill="#aee1f0" d="M 244.5,186.5 C 247.685,191.398 251.018,196.398 254.5,201.5C 249.551,202.096 244.551,202.096 239.5,201.5C 239.917,197.165 240.417,192.832 241,188.5C 242.302,187.915 243.469,187.249 244.5,186.5 Z"/></g>
<g><path style="opacity:1" fill="#40453d" d="M 211.5,195.5 C 210.833,195.5 210.167,195.5 209.5,195.5C 201.5,195.5 193.5,195.5 185.5,195.5C 184.5,195.5 183.5,195.5 182.5,195.5C 177.786,195.827 173.12,195.493 168.5,194.5C 188.167,193.167 207.833,193.167 227.5,194.5C 222.208,195.495 216.875,195.828 211.5,195.5 Z"/></g>
<g><path style="opacity:1" fill="#1c1a1a" d="M 227.5,184.5 C 234.904,188.374 236.404,194.04 232,201.5C 226.713,203.873 226.38,203.207 231,199.5C 233.651,193.509 232.484,188.509 227.5,184.5 Z"/></g>
<g><path style="opacity:1" fill="#1e1b19" d="M 166.5,184.5 C 167.376,184.369 168.043,184.702 168.5,185.5C 160.5,191.167 160.5,196.833 168.5,202.5C 166.405,203.229 164.572,202.563 163,200.5C 159.129,194.02 160.295,188.687 166.5,184.5 Z"/></g>
<g><path style="opacity:1" fill="#82c499" d="M 209.5,195.5 C 210.167,195.5 210.833,195.5 211.5,195.5C 211.703,197.39 211.037,198.89 209.5,200C 203.248,201.254 200.748,205.087 202,211.5C 201.292,212.381 200.458,213.047 199.5,213.5C 197.066,212.646 197.233,211.646 200,210.5C 198.402,203.129 201.235,198.963 208.5,198C 209.252,197.329 209.586,196.496 209.5,195.5 Z"/></g>
<g><path style="opacity:1" fill="#87c69d" d="M 182.5,195.5 C 183.5,195.5 184.5,195.5 185.5,195.5C 185.286,197.144 185.62,198.644 186.5,200C 188.888,200.303 191.055,201.137 193,202.5C 193.801,206.194 194.968,209.694 196.5,213C 195.906,213.464 195.239,213.631 194.5,213.5C 192.287,211.042 191.121,208.042 191,204.5C 188.555,203.094 186.055,201.76 183.5,200.5C 182.691,198.929 182.357,197.262 182.5,195.5 Z"/></g>
<g><path style="opacity:1" fill="#c6e2bd" d="M 185.5,195.5 C 193.5,195.5 201.5,195.5 209.5,195.5C 209.586,196.496 209.252,197.329 208.5,198C 201.235,198.963 198.402,203.129 200,210.5C 197.233,211.646 197.066,212.646 199.5,213.5C 197.833,214.833 196.167,214.833 194.5,213.5C 195.239,213.631 195.906,213.464 196.5,213C 194.968,209.694 193.801,206.194 193,202.5C 191.055,201.137 188.888,200.303 186.5,200C 185.62,198.644 185.286,197.144 185.5,195.5 Z"/></g>
<g><path style="opacity:1" fill="#b0e4eb" d="M 236.5,205.5 C 238.453,208.24 238.786,211.24 237.5,214.5C 235.775,213.985 234.108,213.318 232.5,212.5C 234.616,210.6 235.949,208.267 236.5,205.5 Z"/></g>
<g><path style="opacity:1" fill="#b0e4eb" d="M 157.5,205.5 C 159.247,207.428 160.913,209.594 162.5,212C 161.095,213.269 159.429,213.769 157.5,213.5C 157.5,210.833 157.5,208.167 157.5,205.5 Z"/></g>
<g><path style="opacity:1" fill="#98cba4" d="M 183.5,209.5 C 188.975,209.44 190.309,211.606 187.5,216C 182.57,216.427 181.237,214.26 183.5,209.5 Z"/></g>
<g><path style="opacity:1" fill="#95cca3" d="M 204.5,213.5 C 208.211,212.846 210.211,214.346 210.5,218C 210.437,222.745 208.27,224.245 204,222.5C 203.264,219.408 203.431,216.408 204.5,213.5 Z"/></g>
<g><path style="opacity:1" fill="#e5d4c7" d="M 185.5,228.5 C 193.056,230.822 200.723,231.155 208.5,229.5C 209.044,233.673 208.377,237.506 206.5,241C 199.451,242.996 192.451,242.829 185.5,240.5C 185.5,236.5 185.5,232.5 185.5,228.5 Z"/></g>
<g><path style="opacity:0.984" fill="#fcfcfc" d="M 183.5,260.5 C 173.701,258.677 164.368,255.677 155.5,251.5C 157.544,250.969 159.211,249.802 160.5,248C 167.871,245.599 175.204,243.099 182.5,240.5C 183.497,247.134 183.83,253.8 183.5,260.5 Z"/></g>
<g><path style="opacity:0.988" fill="#fcfcfc" d="M 237.5,253.5 C 229.171,258.048 220.171,260.381 210.5,260.5C 210.17,253.8 210.503,247.134 211.5,240.5C 218.785,243.095 226.118,245.595 233.5,248C 234.665,249.992 235.998,251.825 237.5,253.5 Z"/></g>
<g><path style="opacity:1" fill="#95f5e2" d="M 186.5,242.5 C 193.512,245.021 200.512,245.021 207.5,242.5C 207.861,248.889 208.861,254.889 210.5,260.5C 202.308,261.755 193.975,261.755 185.5,260.5C 185.177,254.31 185.51,248.31 186.5,242.5 Z"/></g>
<g><path style="opacity:1" fill="#385d56" d="M 186.5,242.5 C 185.51,248.31 185.177,254.31 185.5,260.5C 185.167,260.5 184.833,260.5 184.5,260.5C 184.17,254.132 184.504,247.798 185.5,241.5C 186.107,241.624 186.44,241.957 186.5,242.5 Z"/></g>
</svg>
